<?xml version="1.0" standalone="no"?>
<!DOCTYPE svg PUBLIC "-//W3C//DTD SVG 20010904//EN"
 "http://www.w3.org/TR/2001/REC-SVG-20010904/DTD/svg10.dtd">
<svg version="1.0" xmlns="http://www.w3.org/2000/svg"
 width="90.000000pt" height="90.000000pt" viewBox="0 0 90.000000 90.000000"
 preserveAspectRatio="xMidYMid meet">

<g transform="translate(0.000000,90.000000) scale(0.100000,-0.100000)"
fill="#000000" stroke="none">
<path d="M445 835 c-32 -31 -33 -74 -2 -103 72 -67 172 34 102 103 -13 14 -36
25 -50 25 -14 0 -37 -11 -50 -25z"/>
<path d="M318 609 c-73 -48 -77 -53 -106 -124 -25 -62 -28 -77 -18 -91 21 -28
43 -10 74 58 24 50 38 68 71 86 47 26 47 26 26 -68 -23 -106 -21 -115 38 -178
50 -53 55 -63 72 -142 9 -47 22 -91 27 -97 14 -18 43 -16 58 2 20 24 -14 174
-59 257 l-36 66 29 116 c26 109 27 118 12 141 -14 21 -24 25 -64 25 -40 0 -59
-8 -124 -51z"/>
<path d="M551 545 c-14 -50 2 -72 63 -90 61 -18 93 -19 99 -2 9 24 -13 45 -61
57 -34 9 -54 22 -69 43 l-21 29 -11 -37z"/>
<path d="M327 262 c-5 -26 -24 -61 -57 -103 -27 -35 -50 -71 -50 -79 0 -21 20
-40 41 -40 21 0 115 116 131 160 10 30 8 34 -24 67 l-35 35 -6 -40z"/>
</g>
</svg>
