<?xml version="1.0" standalone="no"?>
<!DOCTYPE svg PUBLIC "-//W3C//DTD SVG 20010904//EN"
 "http://www.w3.org/TR/2001/REC-SVG-20010904/DTD/svg10.dtd">
<svg version="1.0" xmlns="http://www.w3.org/2000/svg"
 width="90.000000pt" height="90.000000pt" viewBox="0 0 90.000000 90.000000"
 preserveAspectRatio="xMidYMid meet">

<g transform="translate(0.000000,90.000000) scale(0.100000,-0.100000)"
fill="#000000" stroke="none">
<path d="M429 831 c-31 -31 -36 -59 -17 -94 17 -33 39 -46 76 -47 87 -1 113
117 35 158 -35 19 -63 14 -94 -17z"/>
<path d="M283 673 c-7 -2 -44 -40 -83 -84 -73 -83 -81 -104 -58 -154 23 -50
108 -75 108 -32 0 28 54 227 69 255 10 19 9 22 -6 21 -10 0 -24 -3 -30 -6z"/>
<path d="M650 615 c0 -50 -2 -56 -30 -70 -16 -8 -34 -15 -41 -15 -6 0 -36 22
-65 49 -43 39 -64 51 -100 57 -27 4 -50 2 -56 -4 -5 -5 -23 -62 -39 -127 -35
-138 -36 -133 65 -217 l65 -53 0 -82 c1 -83 13 -113 46 -113 35 0 45 29 45
131 l0 99 -55 65 -56 65 18 66 18 65 54 -40 c51 -39 55 -40 82 -26 15 8 33 15
38 15 7 0 12 -76 13 -217 2 -162 6 -217 16 -221 9 -3 12 48 12 231 0 200 2
236 15 241 8 3 15 15 15 26 0 11 -7 23 -15 26 -11 4 -15 21 -15 55 0 37 -4 49
-15 49 -12 0 -15 -13 -15 -55z"/>
<path d="M265 261 c-9 -27 -34 -74 -55 -105 -42 -59 -48 -84 -28 -104 26 -26
48 -12 95 61 25 39 52 87 60 106 14 32 13 35 -13 62 -15 16 -31 29 -35 29 -4
0 -15 -22 -24 -49z"/>
</g>
</svg>
